<svg xmlns="http://www.w3.org/2000/svg"  viewBox="0 0 50 50" width="500px" height="500px"><path d="M 37.935547 3 C 35.817547 3 33.811312 3.7227813 32.195312 5.0507812 C 31.964312 5.2407813 31.741344 5.44225 31.527344 5.65625 L 24.091797 13.091797 L 26.439453 15.439453 C 27.025453 14.853453 27.975547 14.853453 28.560547 15.439453 C 29.146547 16.025453 29.146547 16.975547 28.560547 17.560547 L 32.439453 21.439453 C 33.025453 20.853453 33.975547 20.853453 34.560547 21.439453 C 35.146547 22.025453 35.146547 22.975547 34.560547 23.560547 L 36.908203 25.908203 L 44.34375 18.472656 C 44.98575 17.830656 45.5205 17.109078 45.9375 16.330078 C 46.6325 15.033078 47 13.578453 47 12.064453 C 47 10.551453 46.6325 9.093875 45.9375 7.796875 C 45.5205 7.017875 44.98575 6.2962969 44.34375 5.6542969 C 44.12975 5.4402969 43.906781 5.2388281 43.675781 5.0488281 C 42.061781 3.7218281 40.053547 3 37.935547 3 z M 25.980469 4.9902344 A 1.0001 1.0001 0 0 0 25.292969 5.2929688 L 14.021484 16.542969 C 11.119802 19.444651 9.804159 23.333668 10.048828 27.134766 L 7.5917969 29.591797 C 7.4687969 29.714797 7.3819375 29.865203 7.3359375 30.033203 L 3.0351562 45.736328 C 2.9401562 46.083328 3.0389687 46.453031 3.2929688 46.707031 C 3.4829687 46.897031 3.738 47 4 47 C 4.088 47 4.1766719 46.988844 4.2636719 46.964844 L 19.966797 42.666016 C 20.133797 42.620016 20.285203 42.531203 20.408203 42.408203 L 22.882812 39.933594 C 26.670827 40.165659 30.542463 38.847514 33.433594 35.957031 L 44.707031 24.707031 A 1.0001 1.0001 0 0 0 43.980469 22.990234 A 1.0001 1.0001 0 0 0 43.292969 23.292969 L 38.789062 27.789062 L 36.908203 25.910156 L 33.908203 28.908203 L 31.210938 26.210938 L 18.140625 39.279297 C 18.206625 39.843297 18.306312 40.441766 18.445312 41.009766 L 9.4316406 43.476562 C 8.834248 42.197426 7.8021134 41.165291 6.5234375 40.568359 L 9.0078125 31.496094 C 9.6578125 31.638094 10.255484 31.742547 10.771484 31.810547 L 23.791016 18.789062 L 21.091797 16.091797 L 12.068359 25.115234 C 12.319065 22.503215 13.431262 19.961316 15.435547 17.957031 L 19.199219 14.199219 L 21.089844 16.089844 L 24.089844 13.089844 L 22.203125 11.203125 L 26.707031 6.7070312 A 1.0001 1.0001 0 0 0 25.980469 4.9902344 z M 35.5 7 C 35.883875 7 36.268047 7.1464531 36.560547 7.4394531 C 37.146547 8.0254531 37.146547 8.9755469 36.560547 9.5605469 C 35.975547 10.145547 35.025453 10.145547 34.439453 9.5605469 C 33.853453 8.9745469 33.853453 8.0244531 34.439453 7.4394531 C 34.732453 7.1464531 35.116125 7 35.5 7 z M 40.5 8 C 40.883875 8 41.268047 8.1464531 41.560547 8.4394531 C 42.146547 9.0254531 42.146547 9.9755469 41.560547 10.560547 C 40.974547 11.146547 40.024453 11.146547 39.439453 10.560547 C 38.854453 9.9755469 38.854453 9.0254531 39.439453 8.4394531 C 39.732453 8.1464531 40.116125 8 40.5 8 z M 31.5 11 C 31.883875 11 32.268047 11.146453 32.560547 11.439453 C 33.146547 12.025453 33.146547 12.975547 32.560547 13.560547 C 31.974547 14.146547 31.024453 14.146547 30.439453 13.560547 C 29.854453 12.975547 29.854453 12.025453 30.439453 11.439453 C 30.732453 11.146453 31.116125 11 31.5 11 z M 36.5 12 C 36.883875 12 37.268047 12.146453 37.560547 12.439453 C 38.146547 13.025453 38.146547 13.975547 37.560547 14.560547 C 36.974547 15.146547 36.024453 15.146547 35.439453 14.560547 C 34.854453 13.975547 34.854453 13.025453 35.439453 12.439453 C 35.732453 12.146453 36.116125 12 36.5 12 z M 41.5 13 C 41.883875 13 42.268047 13.146453 42.560547 13.439453 C 43.145547 14.024453 43.145547 14.974547 42.560547 15.560547 C 41.974547 16.146547 41.024453 16.146547 40.439453 15.560547 C 39.853453 14.974547 39.853453 14.024453 40.439453 13.439453 C 40.732453 13.146453 41.116125 13 41.5 13 z M 32.5 16 C 32.883875 16 33.268047 16.146453 33.560547 16.439453 C 34.145547 17.024453 34.145547 17.974547 33.560547 18.560547 C 32.974547 19.146547 32.024453 19.146547 31.439453 18.560547 C 30.853453 17.974547 30.853453 17.024453 31.439453 16.439453 C 31.732453 16.146453 32.116125 16 32.5 16 z M 37.5 17 C 37.883875 17 38.268047 17.146453 38.560547 17.439453 C 39.145547 18.024453 39.145547 18.974547 38.560547 19.560547 C 37.974547 20.146547 37.024453 20.146547 36.439453 19.560547 C 35.853453 18.974547 35.853453 18.024453 36.439453 17.439453 C 36.732453 17.146453 37.116125 17 37.5 17 z M 25.210938 20.210938 L 12.480469 32.939453 C 12.810469 33.779453 13.369062 34.780937 14.289062 35.710938 C 15.219062 36.640937 16.230313 37.189766 17.070312 37.509766 L 29.789062 24.789062 L 25.210938 20.210938 z M 33.908203 28.910156 L 35.785156 30.785156 L 32.021484 34.542969 C 30.028927 36.535526 27.504181 37.650011 24.908203 37.910156 L 33.908203 28.910156 z"/></svg>